<?xml version="1.0" encoding="utf-8" standalone="no"?>
<!DOCTYPE svg PUBLIC "-//W3C//DTD SVG 1.1//EN"
  "http://www.w3.org/Graphics/SVG/1.1/DTD/svg11.dtd">
<!-- Created with matplotlib (https://matplotlib.org/) -->
<svg height="490.097121pt" version="1.1" viewBox="0 0 965.822657 490.097121" width="965.822657pt" xmlns="http://www.w3.org/2000/svg" xmlns:xlink="http://www.w3.org/1999/xlink">
 <defs>
  <style type="text/css">
*{stroke-linecap:butt;stroke-linejoin:round;}
  </style>
 </defs>
 <g id="figure_1">
  <g id="patch_1">
   <path d="M -0 490.097121 
L 965.822657 490.097121 
L 965.822657 0 
L -0 0 
z
" style="fill:none;"/>
  </g>
  <g id="axes_1">
   <g id="patch_2">
    <path d="M 79.8825 65.567931 
L 958.622657 65.567931 
L 958.622657 7.2 
L 79.8825 7.2 
z
" style="fill:none;"/>
   </g>
   <g id="matplotlib.axis_1">
    <g id="xtick_1">
     <g id="line2d_1">
      <defs>
       <path d="M 0 0 
L 0 6 
" id="maf50a91c74" style="stroke:#262626;stroke-width:1.25;"/>
      </defs>
      <g>
       <use style="fill:#262626;stroke:#262626;stroke-width:1.25;" x="217.545193" xlink:href="#maf50a91c74" y="65.567931"/>
      </g>
     </g>
    </g>
    <g id="xtick_2">
     <g id="line2d_2">
      <g>
       <use style="fill:#262626;stroke:#262626;stroke-width:1.25;" x="385.429106" xlink:href="#maf50a91c74" y="65.567931"/>
      </g>
     </g>
    </g>
    <g id="xtick_3">
     <g id="line2d_3">
      <g>
       <use style="fill:#262626;stroke:#262626;stroke-width:1.25;" x="553.313019" xlink:href="#maf50a91c74" y="65.567931"/>
      </g>
     </g>
    </g>
    <g id="xtick_4">
     <g id="line2d_4">
      <g>
       <use style="fill:#262626;stroke:#262626;stroke-width:1.25;" x="721.196932" xlink:href="#maf50a91c74" y="65.567931"/>
      </g>
     </g>
    </g>
    <g id="xtick_5">
     <g id="line2d_5">
      <g>
       <use style="fill:#262626;stroke:#262626;stroke-width:1.25;" x="889.080845" xlink:href="#maf50a91c74" y="65.567931"/>
      </g>
     </g>
    </g>
   </g>
   <g id="matplotlib.axis_2"/>
   <g id="patch_3">
    <path clip-path="url(#p26ad27f0b6)" d="M 464.357509 13.036793 
L 464.357509 59.731138 
L 600.09846 59.731138 
L 600.09846 13.036793 
L 464.357509 13.036793 
z
" style="fill:#e3ad40;stroke:#575757;stroke-linejoin:miter;stroke-width:1.5;"/>
   </g>
   <g id="line2d_6">
    <path clip-path="url(#p26ad27f0b6)" d="M 464.357509 36.383966 
L 262.416238 36.383966 
" style="fill:none;stroke:#575757;stroke-linecap:round;stroke-width:1.5;"/>
   </g>
   <g id="line2d_7">
    <path clip-path="url(#p26ad27f0b6)" d="M 600.09846 36.383966 
L 803.478182 36.383966 
" style="fill:none;stroke:#575757;stroke-linecap:round;stroke-width:1.5;"/>
   </g>
   <g id="line2d_8">
    <path clip-path="url(#p26ad27f0b6)" d="M 262.416238 24.710379 
L 262.416238 48.057552 
" style="fill:none;stroke:#575757;stroke-linecap:round;stroke-width:1.5;"/>
   </g>
   <g id="line2d_9">
    <path clip-path="url(#p26ad27f0b6)" d="M 803.478182 24.710379 
L 803.478182 48.057552 
" style="fill:none;stroke:#575757;stroke-linecap:round;stroke-width:1.5;"/>
   </g>
   <g id="line2d_10">
    <defs>
     <path d="M 0 3.535534 
L 2.12132 0 
L 0 -3.535534 
L -2.12132 0 
z
" id="m5eee4f8a10" style="stroke:#575757;stroke-linejoin:miter;"/>
    </defs>
    <g clip-path="url(#p26ad27f0b6)">
     <use style="fill:#575757;stroke:#575757;stroke-linejoin:miter;" x="208.49094" xlink:href="#m5eee4f8a10" y="36.383966"/>
     <use style="fill:#575757;stroke:#575757;stroke-linejoin:miter;" x="246.452978" xlink:href="#m5eee4f8a10" y="36.383966"/>
     <use style="fill:#575757;stroke:#575757;stroke-linejoin:miter;" x="254.956956" xlink:href="#m5eee4f8a10" y="36.383966"/>
     <use style="fill:#575757;stroke:#575757;stroke-linejoin:miter;" x="235.838758" xlink:href="#m5eee4f8a10" y="36.383966"/>
     <use style="fill:#575757;stroke:#575757;stroke-linejoin:miter;" x="256.958553" xlink:href="#m5eee4f8a10" y="36.383966"/>
     <use style="fill:#575757;stroke:#575757;stroke-linejoin:miter;" x="236.177619" xlink:href="#m5eee4f8a10" y="36.383966"/>
     <use style="fill:#575757;stroke:#575757;stroke-linejoin:miter;" x="214.110458" xlink:href="#m5eee4f8a10" y="36.383966"/>
     <use style="fill:#575757;stroke:#575757;stroke-linejoin:miter;" x="242.626763" xlink:href="#m5eee4f8a10" y="36.383966"/>
     <use style="fill:#575757;stroke:#575757;stroke-linejoin:miter;" x="244.245146" xlink:href="#m5eee4f8a10" y="36.383966"/>
     <use style="fill:#575757;stroke:#575757;stroke-linejoin:miter;" x="254.936549" xlink:href="#m5eee4f8a10" y="36.383966"/>
     <use style="fill:#575757;stroke:#575757;stroke-linejoin:miter;" x="249.171493" xlink:href="#m5eee4f8a10" y="36.383966"/>
     <use style="fill:#575757;stroke:#575757;stroke-linejoin:miter;" x="197.956913" xlink:href="#m5eee4f8a10" y="36.383966"/>
     <use style="fill:#575757;stroke:#575757;stroke-linejoin:miter;" x="253.826435" xlink:href="#m5eee4f8a10" y="36.383966"/>
     <use style="fill:#575757;stroke:#575757;stroke-linejoin:miter;" x="243.94101" xlink:href="#m5eee4f8a10" y="36.383966"/>
     <use style="fill:#575757;stroke:#575757;stroke-linejoin:miter;" x="258.630664" xlink:href="#m5eee4f8a10" y="36.383966"/>
     <use style="fill:#575757;stroke:#575757;stroke-linejoin:miter;" x="119.825234" xlink:href="#m5eee4f8a10" y="36.383966"/>
     <use style="fill:#575757;stroke:#575757;stroke-linejoin:miter;" x="223.211069" xlink:href="#m5eee4f8a10" y="36.383966"/>
     <use style="fill:#575757;stroke:#575757;stroke-linejoin:miter;" x="256.614561" xlink:href="#m5eee4f8a10" y="36.383966"/>
     <use style="fill:#575757;stroke:#575757;stroke-linejoin:miter;" x="252.022565" xlink:href="#m5eee4f8a10" y="36.383966"/>
     <use style="fill:#575757;stroke:#575757;stroke-linejoin:miter;" x="251.406183" xlink:href="#m5eee4f8a10" y="36.383966"/>
     <use style="fill:#575757;stroke:#575757;stroke-linejoin:miter;" x="248.713138" xlink:href="#m5eee4f8a10" y="36.383966"/>
     <use style="fill:#575757;stroke:#575757;stroke-linejoin:miter;" x="215.583076" xlink:href="#m5eee4f8a10" y="36.383966"/>
     <use style="fill:#575757;stroke:#575757;stroke-linejoin:miter;" x="243.53087" xlink:href="#m5eee4f8a10" y="36.383966"/>
     <use style="fill:#575757;stroke:#575757;stroke-linejoin:miter;" x="219.254203" xlink:href="#m5eee4f8a10" y="36.383966"/>
     <use style="fill:#575757;stroke:#575757;stroke-linejoin:miter;" x="255.588369" xlink:href="#m5eee4f8a10" y="36.383966"/>
     <use style="fill:#575757;stroke:#575757;stroke-linejoin:miter;" x="243.789585" xlink:href="#m5eee4f8a10" y="36.383966"/>
     <use style="fill:#575757;stroke:#575757;stroke-linejoin:miter;" x="250.574379" xlink:href="#m5eee4f8a10" y="36.383966"/>
     <use style="fill:#575757;stroke:#575757;stroke-linejoin:miter;" x="238.100804" xlink:href="#m5eee4f8a10" y="36.383966"/>
     <use style="fill:#575757;stroke:#575757;stroke-linejoin:miter;" x="878.541356" xlink:href="#m5eee4f8a10" y="36.383966"/>
     <use style="fill:#575757;stroke:#575757;stroke-linejoin:miter;" x="816.408228" xlink:href="#m5eee4f8a10" y="36.383966"/>
     <use style="fill:#575757;stroke:#575757;stroke-linejoin:miter;" x="833.906562" xlink:href="#m5eee4f8a10" y="36.383966"/>
     <use style="fill:#575757;stroke:#575757;stroke-linejoin:miter;" x="918.679923" xlink:href="#m5eee4f8a10" y="36.383966"/>
     <use style="fill:#575757;stroke:#575757;stroke-linejoin:miter;" x="829.334486" xlink:href="#m5eee4f8a10" y="36.383966"/>
     <use style="fill:#575757;stroke:#575757;stroke-linejoin:miter;" x="808.659042" xlink:href="#m5eee4f8a10" y="36.383966"/>
     <use style="fill:#575757;stroke:#575757;stroke-linejoin:miter;" x="806.027866" xlink:href="#m5eee4f8a10" y="36.383966"/>
     <use style="fill:#575757;stroke:#575757;stroke-linejoin:miter;" x="810.038334" xlink:href="#m5eee4f8a10" y="36.383966"/>
     <use style="fill:#575757;stroke:#575757;stroke-linejoin:miter;" x="828.673591" xlink:href="#m5eee4f8a10" y="36.383966"/>
     <use style="fill:#575757;stroke:#575757;stroke-linejoin:miter;" x="807.627219" xlink:href="#m5eee4f8a10" y="36.383966"/>
     <use style="fill:#575757;stroke:#575757;stroke-linejoin:miter;" x="818.60855" xlink:href="#m5eee4f8a10" y="36.383966"/>
     <use style="fill:#575757;stroke:#575757;stroke-linejoin:miter;" x="830.302908" xlink:href="#m5eee4f8a10" y="36.383966"/>
     <use style="fill:#575757;stroke:#575757;stroke-linejoin:miter;" x="837.548891" xlink:href="#m5eee4f8a10" y="36.383966"/>
     <use style="fill:#575757;stroke:#575757;stroke-linejoin:miter;" x="813.976507" xlink:href="#m5eee4f8a10" y="36.383966"/>
     <use style="fill:#575757;stroke:#575757;stroke-linejoin:miter;" x="841.943256" xlink:href="#m5eee4f8a10" y="36.383966"/>
     <use style="fill:#575757;stroke:#575757;stroke-linejoin:miter;" x="828.37748" xlink:href="#m5eee4f8a10" y="36.383966"/>
     <use style="fill:#575757;stroke:#575757;stroke-linejoin:miter;" x="828.516546" xlink:href="#m5eee4f8a10" y="36.383966"/>
     <use style="fill:#575757;stroke:#575757;stroke-linejoin:miter;" x="810.167576" xlink:href="#m5eee4f8a10" y="36.383966"/>
     <use style="fill:#575757;stroke:#575757;stroke-linejoin:miter;" x="817.133077" xlink:href="#m5eee4f8a10" y="36.383966"/>
     <use style="fill:#575757;stroke:#575757;stroke-linejoin:miter;" x="890.505508" xlink:href="#m5eee4f8a10" y="36.383966"/>
     <use style="fill:#575757;stroke:#575757;stroke-linejoin:miter;" x="811.424239" xlink:href="#m5eee4f8a10" y="36.383966"/>
     <use style="fill:#575757;stroke:#575757;stroke-linejoin:miter;" x="817.50399" xlink:href="#m5eee4f8a10" y="36.383966"/>
     <use style="fill:#575757;stroke:#575757;stroke-linejoin:miter;" x="844.386299" xlink:href="#m5eee4f8a10" y="36.383966"/>
     <use style="fill:#575757;stroke:#575757;stroke-linejoin:miter;" x="842.680441" xlink:href="#m5eee4f8a10" y="36.383966"/>
     <use style="fill:#575757;stroke:#575757;stroke-linejoin:miter;" x="809.42011" xlink:href="#m5eee4f8a10" y="36.383966"/>
     <use style="fill:#575757;stroke:#575757;stroke-linejoin:miter;" x="816.973092" xlink:href="#m5eee4f8a10" y="36.383966"/>
     <use style="fill:#575757;stroke:#575757;stroke-linejoin:miter;" x="871.086722" xlink:href="#m5eee4f8a10" y="36.383966"/>
     <use style="fill:#575757;stroke:#575757;stroke-linejoin:miter;" x="856.08977" xlink:href="#m5eee4f8a10" y="36.383966"/>
     <use style="fill:#575757;stroke:#575757;stroke-linejoin:miter;" x="815.792041" xlink:href="#m5eee4f8a10" y="36.383966"/>
     <use style="fill:#575757;stroke:#575757;stroke-linejoin:miter;" x="839.262925" xlink:href="#m5eee4f8a10" y="36.383966"/>
    </g>
   </g>
   <g id="line2d_11">
    <path clip-path="url(#p26ad27f0b6)" d="M 531.846554 13.036793 
L 531.846554 59.731138 
" style="fill:none;stroke:#575757;stroke-linecap:round;stroke-width:1.5;"/>
   </g>
   <g id="patch_4">
    <path d="M 79.8825 65.567931 
L 958.622657 65.567931 
" style="fill:none;stroke:#262626;stroke-linecap:square;stroke-linejoin:miter;stroke-width:1.25;"/>
   </g>
  </g>
  <g id="axes_2">
   <g id="patch_5">
    <path d="M 79.8825 435.231496 
L 958.622657 435.231496 
L 958.622657 104.479885 
L 79.8825 104.479885 
z
" style="fill:none;"/>
   </g>
   <g id="matplotlib.axis_3">
    <g id="xtick_6">
     <g id="line2d_12">
      <defs>
       <path d="M 0 0 
L 0 6 
" id="mb8b05380ac" style="stroke:#000000;stroke-width:1.25;"/>
      </defs>
      <g>
       <use style="stroke:#000000;stroke-width:1.25;" x="217.545193" xlink:href="#mb8b05380ac" y="435.231496"/>
      </g>
     </g>
     <g id="text_1">
      <!-- 3 -->
      <defs>
       <path d="M 4.203125 18.890625 
L 12.984375 20.0625 
Q 14.5 12.59375 18.140625 9.296875 
Q 21.78125 6 27 6 
Q 33.203125 6 37.46875 10.296875 
Q 41.75 14.59375 41.75 20.953125 
Q 41.75 27 37.796875 30.921875 
Q 33.84375 34.859375 27.734375 34.859375 
Q 25.25 34.859375 21.53125 33.890625 
L 22.515625 41.609375 
Q 23.390625 41.5 23.921875 41.5 
Q 29.546875 41.5 34.03125 44.421875 
Q 38.53125 47.359375 38.53125 53.46875 
Q 38.53125 58.296875 35.25 61.46875 
Q 31.984375 64.65625 26.8125 64.65625 
Q 21.6875 64.65625 18.265625 61.421875 
Q 14.84375 58.203125 13.875 51.765625 
L 5.078125 53.328125 
Q 6.6875 62.15625 12.390625 67.015625 
Q 18.109375 71.875 26.609375 71.875 
Q 32.46875 71.875 37.390625 69.359375 
Q 42.328125 66.84375 44.9375 62.5 
Q 47.5625 58.15625 47.5625 53.265625 
Q 47.5625 48.640625 45.0625 44.828125 
Q 42.578125 41.015625 37.703125 38.765625 
Q 44.046875 37.3125 47.5625 32.6875 
Q 51.078125 28.078125 51.078125 21.140625 
Q 51.078125 11.765625 44.234375 5.25 
Q 37.40625 -1.265625 26.953125 -1.265625 
Q 17.53125 -1.265625 11.296875 4.34375 
Q 5.078125 9.96875 4.203125 18.890625 
z
" id="ArialMT-51"/>
      </defs>
      <g transform="translate(211.984256 459.047121)scale(0.2 -0.2)">
       <use xlink:href="#ArialMT-51"/>
      </g>
     </g>
    </g>
    <g id="xtick_7">
     <g id="line2d_13">
      <g>
       <use style="stroke:#000000;stroke-width:1.25;" x="385.429106" xlink:href="#mb8b05380ac" y="435.231496"/>
      </g>
     </g>
     <g id="text_2">
      <!-- 4 -->
      <defs>
       <path d="M 32.328125 0 
L 32.328125 17.140625 
L 1.265625 17.140625 
L 1.265625 25.203125 
L 33.9375 71.578125 
L 41.109375 71.578125 
L 41.109375 25.203125 
L 50.78125 25.203125 
L 50.78125 17.140625 
L 41.109375 17.140625 
L 41.109375 0 
z
M 32.328125 25.203125 
L 32.328125 57.46875 
L 9.90625 25.203125 
z
" id="ArialMT-52"/>
      </defs>
      <g transform="translate(379.868169 459.047121)scale(0.2 -0.2)">
       <use xlink:href="#ArialMT-52"/>
      </g>
     </g>
    </g>
    <g id="xtick_8">
     <g id="line2d_14">
      <g>
       <use style="stroke:#000000;stroke-width:1.25;" x="553.313019" xlink:href="#mb8b05380ac" y="435.231496"/>
      </g>
     </g>
     <g id="text_3">
      <!-- 5 -->
      <defs>
       <path d="M 4.15625 18.75 
L 13.375 19.53125 
Q 14.40625 12.796875 18.140625 9.390625 
Q 21.875 6 27.15625 6 
Q 33.5 6 37.890625 10.78125 
Q 42.28125 15.578125 42.28125 23.484375 
Q 42.28125 31 38.0625 35.34375 
Q 33.84375 39.703125 27 39.703125 
Q 22.75 39.703125 19.328125 37.765625 
Q 15.921875 35.84375 13.96875 32.765625 
L 5.71875 33.84375 
L 12.640625 70.609375 
L 48.25 70.609375 
L 48.25 62.203125 
L 19.671875 62.203125 
L 15.828125 42.96875 
Q 22.265625 47.46875 29.34375 47.46875 
Q 38.71875 47.46875 45.15625 40.96875 
Q 51.609375 34.46875 51.609375 24.265625 
Q 51.609375 14.546875 45.953125 7.46875 
Q 39.0625 -1.21875 27.15625 -1.21875 
Q 17.390625 -1.21875 11.203125 4.25 
Q 5.03125 9.71875 4.15625 18.75 
z
" id="ArialMT-53"/>
      </defs>
      <g transform="translate(547.752081 459.047121)scale(0.2 -0.2)">
       <use xlink:href="#ArialMT-53"/>
      </g>
     </g>
    </g>
    <g id="xtick_9">
     <g id="line2d_15">
      <g>
       <use style="stroke:#000000;stroke-width:1.25;" x="721.196932" xlink:href="#mb8b05380ac" y="435.231496"/>
      </g>
     </g>
     <g id="text_4">
      <!-- 6 -->
      <defs>
       <path d="M 49.75 54.046875 
L 41.015625 53.375 
Q 39.84375 58.546875 37.703125 60.890625 
Q 34.125 64.65625 28.90625 64.65625 
Q 24.703125 64.65625 21.53125 62.3125 
Q 17.390625 59.28125 14.984375 53.46875 
Q 12.59375 47.65625 12.5 36.921875 
Q 15.671875 41.75 20.265625 44.09375 
Q 24.859375 46.4375 29.890625 46.4375 
Q 38.671875 46.4375 44.84375 39.96875 
Q 51.03125 33.5 51.03125 23.25 
Q 51.03125 16.5 48.125 10.71875 
Q 45.21875 4.9375 40.140625 1.859375 
Q 35.0625 -1.21875 28.609375 -1.21875 
Q 17.625 -1.21875 10.6875 6.859375 
Q 3.765625 14.9375 3.765625 33.5 
Q 3.765625 54.25 11.421875 63.671875 
Q 18.109375 71.875 29.4375 71.875 
Q 37.890625 71.875 43.28125 67.140625 
Q 48.6875 62.40625 49.75 54.046875 
z
M 13.875 23.1875 
Q 13.875 18.65625 15.796875 14.5 
Q 17.71875 10.359375 21.1875 8.171875 
Q 24.65625 6 28.46875 6 
Q 34.03125 6 38.03125 10.484375 
Q 42.046875 14.984375 42.046875 22.703125 
Q 42.046875 30.125 38.078125 34.390625 
Q 34.125 38.671875 28.125 38.671875 
Q 22.171875 38.671875 18.015625 34.390625 
Q 13.875 30.125 13.875 23.1875 
z
" id="ArialMT-54"/>
      </defs>
      <g transform="translate(715.635994 459.047121)scale(0.2 -0.2)">
       <use xlink:href="#ArialMT-54"/>
      </g>
     </g>
    </g>
    <g id="xtick_10">
     <g id="line2d_16">
      <g>
       <use style="stroke:#000000;stroke-width:1.25;" x="889.080845" xlink:href="#mb8b05380ac" y="435.231496"/>
      </g>
     </g>
     <g id="text_5">
      <!-- 7 -->
      <defs>
       <path d="M 4.734375 62.203125 
L 4.734375 70.65625 
L 51.078125 70.65625 
L 51.078125 63.8125 
Q 44.234375 56.546875 37.515625 44.484375 
Q 30.8125 32.421875 27.15625 19.671875 
Q 24.515625 10.6875 23.78125 0 
L 14.75 0 
Q 14.890625 8.453125 18.0625 20.40625 
Q 21.234375 32.375 27.171875 43.484375 
Q 33.109375 54.59375 39.796875 62.203125 
z
" id="ArialMT-55"/>
      </defs>
      <g transform="translate(883.519907 459.047121)scale(0.2 -0.2)">
       <use xlink:href="#ArialMT-55"/>
      </g>
     </g>
    </g>
    <g id="text_6">
     <!-- $x_0$ (kN)$ -->
     <defs>
      <path d="M 24.90625 -10.296875 
L 24.90625 -1.515625 
Q 18.3125 -0.6875 14.1875 1.4375 
Q 10.0625 3.5625 7.046875 8.296875 
Q 4.046875 13.03125 3.5625 19.875 
L 12.40625 21.53125 
Q 13.421875 14.453125 16.015625 11.140625 
Q 19.734375 6.453125 24.90625 5.90625 
L 24.90625 33.890625 
Q 19.484375 34.90625 13.8125 38.09375 
Q 9.625 40.4375 7.34375 44.578125 
Q 5.078125 48.734375 5.078125 54 
Q 5.078125 63.375 11.71875 69.1875 
Q 16.15625 73.09375 24.90625 73.96875 
L 24.90625 78.171875 
L 30.078125 78.171875 
L 30.078125 73.96875 
Q 37.75 73.25 42.234375 69.484375 
Q 48 64.703125 49.171875 56.34375 
L 40.09375 54.984375 
Q 39.3125 60.15625 36.84375 62.90625 
Q 34.375 65.671875 30.078125 66.546875 
L 30.078125 41.21875 
Q 36.71875 39.546875 38.875 38.625 
Q 42.96875 36.8125 45.546875 34.21875 
Q 48.140625 31.640625 49.53125 28.078125 
Q 50.921875 24.515625 50.921875 20.359375 
Q 50.921875 11.234375 45.109375 5.125 
Q 39.3125 -0.984375 30.078125 -1.421875 
L 30.078125 -10.296875 
z
M 24.90625 66.65625 
Q 19.78125 65.875 16.828125 62.546875 
Q 13.875 59.234375 13.875 54.6875 
Q 13.875 50.203125 16.375 47.171875 
Q 18.890625 44.140625 24.90625 42.328125 
z
M 30.078125 5.90625 
Q 35.203125 6.546875 38.546875 10.34375 
Q 41.890625 14.15625 41.890625 19.78125 
Q 41.890625 24.5625 39.515625 27.46875 
Q 37.15625 30.375 30.078125 32.671875 
z
" id="ArialMT-36"/>
      <path d="M 0.734375 0 
L 19.671875 26.953125 
L 2.15625 51.859375 
L 13.140625 51.859375 
L 21.09375 39.703125 
Q 23.34375 36.234375 24.703125 33.890625 
Q 26.859375 37.109375 28.65625 39.59375 
L 37.40625 51.859375 
L 47.90625 51.859375 
L 29.984375 27.4375 
L 49.265625 0 
L 38.484375 0 
L 27.828125 16.109375 
L 25 20.453125 
L 11.375 0 
z
" id="ArialMT-120"/>
      <path d="M -1.515625 -19.875 
L -1.515625 -13.53125 
L 56.734375 -13.53125 
L 56.734375 -19.875 
z
" id="ArialMT-95"/>
      <path d="M 4.15625 35.296875 
Q 4.15625 48 6.765625 55.734375 
Q 9.375 63.484375 14.515625 67.671875 
Q 19.671875 71.875 27.484375 71.875 
Q 33.25 71.875 37.59375 69.546875 
Q 41.9375 67.234375 44.765625 62.859375 
Q 47.609375 58.5 49.21875 52.21875 
Q 50.828125 45.953125 50.828125 35.296875 
Q 50.828125 22.703125 48.234375 14.96875 
Q 45.65625 7.234375 40.5 3 
Q 35.359375 -1.21875 27.484375 -1.21875 
Q 17.140625 -1.21875 11.234375 6.203125 
Q 4.15625 15.140625 4.15625 35.296875 
z
M 13.1875 35.296875 
Q 13.1875 17.671875 17.3125 11.828125 
Q 21.4375 6 27.484375 6 
Q 33.546875 6 37.671875 11.859375 
Q 41.796875 17.71875 41.796875 35.296875 
Q 41.796875 52.984375 37.671875 58.78125 
Q 33.546875 64.59375 27.390625 64.59375 
Q 21.34375 64.59375 17.71875 59.46875 
Q 13.1875 52.9375 13.1875 35.296875 
z
" id="ArialMT-48"/>
      <path id="ArialMT-32"/>
      <path d="M 23.390625 -21.046875 
Q 16.109375 -11.859375 11.078125 0.4375 
Q 6.0625 12.75 6.0625 25.921875 
Q 6.0625 37.546875 9.8125 48.1875 
Q 14.203125 60.546875 23.390625 72.796875 
L 29.6875 72.796875 
Q 23.78125 62.640625 21.875 58.296875 
Q 18.890625 51.5625 17.1875 44.234375 
Q 15.09375 35.109375 15.09375 25.875 
Q 15.09375 2.390625 29.6875 -21.046875 
z
" id="ArialMT-40"/>
      <path d="M 6.640625 0 
L 6.640625 71.578125 
L 15.4375 71.578125 
L 15.4375 30.765625 
L 36.234375 51.859375 
L 47.609375 51.859375 
L 27.78125 32.625 
L 49.609375 0 
L 38.765625 0 
L 21.625 26.515625 
L 15.4375 20.5625 
L 15.4375 0 
z
" id="ArialMT-107"/>
      <path d="M 7.625 0 
L 7.625 71.578125 
L 17.328125 71.578125 
L 54.9375 15.375 
L 54.9375 71.578125 
L 64.015625 71.578125 
L 64.015625 0 
L 54.296875 0 
L 16.703125 56.25 
L 16.703125 0 
z
" id="ArialMT-78"/>
      <path d="M 12.359375 -21.046875 
L 6.0625 -21.046875 
Q 20.65625 2.390625 20.65625 25.875 
Q 20.65625 35.0625 18.5625 44.09375 
Q 16.890625 51.421875 13.921875 58.15625 
Q 12.015625 62.546875 6.0625 72.796875 
L 12.359375 72.796875 
Q 21.53125 60.546875 25.921875 48.1875 
Q 29.6875 37.546875 29.6875 25.921875 
Q 29.6875 12.75 24.625 0.4375 
Q 19.578125 -11.859375 12.359375 -21.046875 
z
" id="ArialMT-41"/>
     </defs>
     <g transform="translate(475.681329 479.529621)scale(0.16 -0.16)">
      <use xlink:href="#ArialMT-36"/>
      <use x="55.615234" xlink:href="#ArialMT-120"/>
      <use x="105.615234" xlink:href="#ArialMT-95"/>
      <use x="161.230469" xlink:href="#ArialMT-48"/>
      <use x="216.845703" xlink:href="#ArialMT-36"/>
      <use x="272.460938" xlink:href="#ArialMT-32"/>
      <use x="300.244141" xlink:href="#ArialMT-40"/>
      <use x="333.544922" xlink:href="#ArialMT-107"/>
      <use x="383.544922" xlink:href="#ArialMT-78"/>
      <use x="455.761719" xlink:href="#ArialMT-41"/>
      <use x="489.0625" xlink:href="#ArialMT-36"/>
     </g>
    </g>
   </g>
   <g id="matplotlib.axis_4">
    <g id="ytick_1">
     <g id="line2d_17">
      <defs>
       <path d="M 0 0 
L -6 0 
" id="me2a5128a38" style="stroke:#000000;stroke-width:1.25;"/>
      </defs>
      <g>
       <use style="stroke:#000000;stroke-width:1.25;" x="79.8825" xlink:href="#me2a5128a38" y="435.231496"/>
      </g>
     </g>
     <g id="text_7">
      <!-- 0 -->
      <g transform="translate(59.260625 442.389309)scale(0.2 -0.2)">
       <use xlink:href="#ArialMT-48"/>
      </g>
     </g>
    </g>
    <g id="ytick_2">
     <g id="line2d_18">
      <g>
       <use style="stroke:#000000;stroke-width:1.25;" x="79.8825" xlink:href="#me2a5128a38" y="383.659536"/>
      </g>
     </g>
     <g id="text_8">
      <!-- 250 -->
      <defs>
       <path d="M 50.34375 8.453125 
L 50.34375 0 
L 3.03125 0 
Q 2.9375 3.171875 4.046875 6.109375 
Q 5.859375 10.9375 9.828125 15.625 
Q 13.8125 20.3125 21.34375 26.46875 
Q 33.015625 36.03125 37.109375 41.625 
Q 41.21875 47.21875 41.21875 52.203125 
Q 41.21875 57.421875 37.46875 61 
Q 33.734375 64.59375 27.734375 64.59375 
Q 21.390625 64.59375 17.578125 60.78125 
Q 13.765625 56.984375 13.71875 50.25 
L 4.6875 51.171875 
Q 5.609375 61.28125 11.65625 66.578125 
Q 17.71875 71.875 27.9375 71.875 
Q 38.234375 71.875 44.234375 66.15625 
Q 50.25 60.453125 50.25 52 
Q 50.25 47.703125 48.484375 43.546875 
Q 46.734375 39.40625 42.65625 34.8125 
Q 38.578125 30.21875 29.109375 22.21875 
Q 21.1875 15.578125 18.9375 13.203125 
Q 16.703125 10.84375 15.234375 8.453125 
z
" id="ArialMT-50"/>
      </defs>
      <g transform="translate(37.016875 390.817348)scale(0.2 -0.2)">
       <use xlink:href="#ArialMT-50"/>
       <use x="55.615234" xlink:href="#ArialMT-53"/>
       <use x="111.230469" xlink:href="#ArialMT-48"/>
      </g>
     </g>
    </g>
    <g id="ytick_3">
     <g id="line2d_19">
      <g>
       <use style="stroke:#000000;stroke-width:1.25;" x="79.8825" xlink:href="#me2a5128a38" y="332.087575"/>
      </g>
     </g>
     <g id="text_9">
      <!-- 500 -->
      <g transform="translate(37.016875 339.245388)scale(0.2 -0.2)">
       <use xlink:href="#ArialMT-53"/>
       <use x="55.615234" xlink:href="#ArialMT-48"/>
       <use x="111.230469" xlink:href="#ArialMT-48"/>
      </g>
     </g>
    </g>
    <g id="ytick_4">
     <g id="line2d_20">
      <g>
       <use style="stroke:#000000;stroke-width:1.25;" x="79.8825" xlink:href="#me2a5128a38" y="280.515615"/>
      </g>
     </g>
     <g id="text_10">
      <!-- 750 -->
      <g transform="translate(37.016875 287.673427)scale(0.2 -0.2)">
       <use xlink:href="#ArialMT-55"/>
       <use x="55.615234" xlink:href="#ArialMT-53"/>
       <use x="111.230469" xlink:href="#ArialMT-48"/>
      </g>
     </g>
    </g>
    <g id="ytick_5">
     <g id="line2d_21">
      <g>
       <use style="stroke:#000000;stroke-width:1.25;" x="79.8825" xlink:href="#me2a5128a38" y="228.943655"/>
      </g>
     </g>
     <g id="text_11">
      <!-- 1000 -->
      <defs>
       <path d="M 37.25 0 
L 28.46875 0 
L 28.46875 56 
Q 25.296875 52.984375 20.140625 49.953125 
Q 14.984375 46.921875 10.890625 45.40625 
L 10.890625 53.90625 
Q 18.265625 57.375 23.78125 62.296875 
Q 29.296875 67.234375 31.59375 71.875 
L 37.25 71.875 
z
" id="ArialMT-49"/>
      </defs>
      <g transform="translate(25.895 236.101467)scale(0.2 -0.2)">
       <use xlink:href="#ArialMT-49"/>
       <use x="55.615234" xlink:href="#ArialMT-48"/>
       <use x="111.230469" xlink:href="#ArialMT-48"/>
       <use x="166.845703" xlink:href="#ArialMT-48"/>
      </g>
     </g>
    </g>
    <g id="ytick_6">
     <g id="line2d_22">
      <g>
       <use style="stroke:#000000;stroke-width:1.25;" x="79.8825" xlink:href="#me2a5128a38" y="177.371694"/>
      </g>
     </g>
     <g id="text_12">
      <!-- 1250 -->
      <g transform="translate(25.895 184.529507)scale(0.2 -0.2)">
       <use xlink:href="#ArialMT-49"/>
       <use x="55.615234" xlink:href="#ArialMT-50"/>
       <use x="111.230469" xlink:href="#ArialMT-53"/>
       <use x="166.845703" xlink:href="#ArialMT-48"/>
      </g>
     </g>
    </g>
    <g id="ytick_7">
     <g id="line2d_23">
      <g>
       <use style="stroke:#000000;stroke-width:1.25;" x="79.8825" xlink:href="#me2a5128a38" y="125.799734"/>
      </g>
     </g>
     <g id="text_13">
      <!-- 1500 -->
      <g transform="translate(25.895 132.957546)scale(0.2 -0.2)">
       <use xlink:href="#ArialMT-49"/>
       <use x="55.615234" xlink:href="#ArialMT-53"/>
       <use x="111.230469" xlink:href="#ArialMT-48"/>
       <use x="166.845703" xlink:href="#ArialMT-48"/>
      </g>
     </g>
    </g>
    <g id="text_14">
     <!-- Frequência -->
     <defs>
      <path d="M 8.203125 0 
L 8.203125 71.578125 
L 56.5 71.578125 
L 56.5 63.140625 
L 17.671875 63.140625 
L 17.671875 40.96875 
L 51.265625 40.96875 
L 51.265625 32.515625 
L 17.671875 32.515625 
L 17.671875 0 
z
" id="ArialMT-70"/>
      <path d="M 6.5 0 
L 6.5 51.859375 
L 14.40625 51.859375 
L 14.40625 44 
Q 17.4375 49.515625 20 51.265625 
Q 22.5625 53.03125 25.640625 53.03125 
Q 30.078125 53.03125 34.671875 50.203125 
L 31.640625 42.046875 
Q 28.421875 43.953125 25.203125 43.953125 
Q 22.3125 43.953125 20.015625 42.21875 
Q 17.71875 40.484375 16.75 37.40625 
Q 15.28125 32.71875 15.28125 27.15625 
L 15.28125 0 
z
" id="ArialMT-114"/>
      <path d="M 42.09375 16.703125 
L 51.171875 15.578125 
Q 49.03125 7.625 43.21875 3.21875 
Q 37.40625 -1.171875 28.375 -1.171875 
Q 17 -1.171875 10.328125 5.828125 
Q 3.65625 12.84375 3.65625 25.484375 
Q 3.65625 38.578125 10.390625 45.796875 
Q 17.140625 53.03125 27.875 53.03125 
Q 38.28125 53.03125 44.875 45.953125 
Q 51.46875 38.875 51.46875 26.03125 
Q 51.46875 25.25 51.421875 23.6875 
L 12.75 23.6875 
Q 13.234375 15.140625 17.578125 10.59375 
Q 21.921875 6.0625 28.421875 6.0625 
Q 33.25 6.0625 36.671875 8.59375 
Q 40.09375 11.140625 42.09375 16.703125 
z
M 13.234375 30.90625 
L 42.1875 30.90625 
Q 41.609375 37.453125 38.875 40.71875 
Q 34.671875 45.796875 27.984375 45.796875 
Q 21.921875 45.796875 17.796875 41.75 
Q 13.671875 37.703125 13.234375 30.90625 
z
" id="ArialMT-101"/>
      <path d="M 39.65625 -19.875 
L 39.65625 5.515625 
Q 37.59375 2.640625 33.90625 0.734375 
Q 30.21875 -1.171875 26.078125 -1.171875 
Q 16.84375 -1.171875 10.171875 6.203125 
Q 3.515625 13.578125 3.515625 26.421875 
Q 3.515625 34.234375 6.21875 40.421875 
Q 8.9375 46.625 14.078125 49.828125 
Q 19.234375 53.03125 25.390625 53.03125 
Q 35.015625 53.03125 40.53125 44.921875 
L 40.53125 51.859375 
L 48.4375 51.859375 
L 48.4375 -19.875 
z
M 12.546875 26.078125 
Q 12.546875 16.0625 16.75 11.0625 
Q 20.953125 6.0625 26.8125 6.0625 
Q 32.421875 6.0625 36.46875 10.8125 
Q 40.53125 15.578125 40.53125 25.296875 
Q 40.53125 35.640625 36.25 40.859375 
Q 31.984375 46.09375 26.21875 46.09375 
Q 20.515625 46.09375 16.53125 41.234375 
Q 12.546875 36.375 12.546875 26.078125 
z
" id="ArialMT-113"/>
      <path d="M 40.578125 0 
L 40.578125 7.625 
Q 34.515625 -1.171875 24.125 -1.171875 
Q 19.53125 -1.171875 15.546875 0.578125 
Q 11.578125 2.34375 9.640625 5 
Q 7.71875 7.671875 6.9375 11.53125 
Q 6.390625 14.109375 6.390625 19.734375 
L 6.390625 51.859375 
L 15.1875 51.859375 
L 15.1875 23.09375 
Q 15.1875 16.21875 15.71875 13.8125 
Q 16.546875 10.359375 19.234375 8.375 
Q 21.921875 6.390625 25.875 6.390625 
Q 29.828125 6.390625 33.296875 8.421875 
Q 36.765625 10.453125 38.203125 13.9375 
Q 39.65625 17.4375 39.65625 24.078125 
L 39.65625 51.859375 
L 48.4375 51.859375 
L 48.4375 0 
z
" id="ArialMT-117"/>
      <path d="M 42.09375 16.703125 
L 51.171875 15.578125 
Q 49.03125 7.625 43.21875 3.21875 
Q 37.40625 -1.171875 28.375 -1.171875 
Q 17 -1.171875 10.328125 5.828125 
Q 3.65625 12.84375 3.65625 25.484375 
Q 3.65625 38.578125 10.390625 45.796875 
Q 17.140625 53.03125 27.875 53.03125 
Q 38.28125 53.03125 44.875 45.953125 
Q 51.46875 38.875 51.46875 26.03125 
Q 51.46875 25.25 51.421875 23.6875 
L 12.75 23.6875 
Q 13.234375 15.140625 17.578125 10.59375 
Q 21.921875 6.0625 28.421875 6.0625 
Q 33.25 6.0625 36.671875 8.59375 
Q 40.09375 11.140625 42.09375 16.703125 
z
M 13.234375 30.90625 
L 42.1875 30.90625 
Q 41.609375 37.453125 38.875 40.71875 
Q 34.671875 45.796875 27.984375 45.796875 
Q 21.921875 45.796875 17.796875 41.75 
Q 13.671875 37.703125 13.234375 30.90625 
z
M 27.6875 66.609375 
L 22.171875 58.296875 
L 12.109375 58.296875 
L 22.65625 71.96875 
L 32.03125 71.96875 
L 43.015625 58.296875 
L 33.0625 58.296875 
z
" id="ArialMT-234"/>
      <path d="M 6.59375 0 
L 6.59375 51.859375 
L 14.5 51.859375 
L 14.5 44.484375 
Q 20.21875 53.03125 31 53.03125 
Q 35.6875 53.03125 39.625 51.34375 
Q 43.5625 49.65625 45.515625 46.921875 
Q 47.46875 44.1875 48.25 40.4375 
Q 48.734375 37.984375 48.734375 31.890625 
L 48.734375 0 
L 39.9375 0 
L 39.9375 31.546875 
Q 39.9375 36.921875 38.90625 39.578125 
Q 37.890625 42.234375 35.28125 43.8125 
Q 32.671875 45.40625 29.15625 45.40625 
Q 23.53125 45.40625 19.453125 41.84375 
Q 15.375 38.28125 15.375 28.328125 
L 15.375 0 
z
" id="ArialMT-110"/>
      <path d="M 40.4375 19 
L 49.078125 17.875 
Q 47.65625 8.9375 41.8125 3.875 
Q 35.984375 -1.171875 27.484375 -1.171875 
Q 16.84375 -1.171875 10.375 5.78125 
Q 3.90625 12.75 3.90625 25.734375 
Q 3.90625 34.125 6.6875 40.421875 
Q 9.46875 46.734375 15.15625 49.875 
Q 20.84375 53.03125 27.546875 53.03125 
Q 35.984375 53.03125 41.359375 48.75 
Q 46.734375 44.484375 48.25 36.625 
L 39.703125 35.296875 
Q 38.484375 40.53125 35.375 43.15625 
Q 32.28125 45.796875 27.875 45.796875 
Q 21.234375 45.796875 17.078125 41.03125 
Q 12.9375 36.28125 12.9375 25.984375 
Q 12.9375 15.53125 16.9375 10.796875 
Q 20.953125 6.0625 27.390625 6.0625 
Q 32.5625 6.0625 36.03125 9.234375 
Q 39.5 12.40625 40.4375 19 
z
" id="ArialMT-99"/>
      <path d="M 6.640625 61.46875 
L 6.640625 71.578125 
L 15.4375 71.578125 
L 15.4375 61.46875 
z
M 6.640625 0 
L 6.640625 51.859375 
L 15.4375 51.859375 
L 15.4375 0 
z
" id="ArialMT-105"/>
      <path d="M 40.4375 6.390625 
Q 35.546875 2.25 31.03125 0.53125 
Q 26.515625 -1.171875 21.34375 -1.171875 
Q 12.796875 -1.171875 8.203125 3 
Q 3.609375 7.171875 3.609375 13.671875 
Q 3.609375 17.484375 5.34375 20.625 
Q 7.078125 23.78125 9.890625 25.6875 
Q 12.703125 27.59375 16.21875 28.5625 
Q 18.796875 29.25 24.03125 29.890625 
Q 34.671875 31.15625 39.703125 32.90625 
Q 39.75 34.71875 39.75 35.203125 
Q 39.75 40.578125 37.25 42.78125 
Q 33.890625 45.75 27.25 45.75 
Q 21.046875 45.75 18.09375 43.578125 
Q 15.140625 41.40625 13.71875 35.890625 
L 5.125 37.0625 
Q 6.296875 42.578125 8.984375 45.96875 
Q 11.671875 49.359375 16.75 51.1875 
Q 21.828125 53.03125 28.515625 53.03125 
Q 35.15625 53.03125 39.296875 51.46875 
Q 43.453125 49.90625 45.40625 47.53125 
Q 47.359375 45.171875 48.140625 41.546875 
Q 48.578125 39.3125 48.578125 33.453125 
L 48.578125 21.734375 
Q 48.578125 9.46875 49.140625 6.21875 
Q 49.703125 2.984375 51.375 0 
L 42.1875 0 
Q 40.828125 2.734375 40.4375 6.390625 
z
M 39.703125 26.03125 
Q 34.90625 24.078125 25.34375 22.703125 
Q 19.921875 21.921875 17.671875 20.9375 
Q 15.4375 19.96875 14.203125 18.09375 
Q 12.984375 16.21875 12.984375 13.921875 
Q 12.984375 10.40625 15.640625 8.0625 
Q 18.3125 5.71875 23.4375 5.71875 
Q 28.515625 5.71875 32.46875 7.9375 
Q 36.421875 10.15625 38.28125 14.015625 
Q 39.703125 17 39.703125 22.796875 
z
" id="ArialMT-97"/>
     </defs>
     <g transform="translate(18.715 309.875691)rotate(-90)scale(0.16 -0.16)">
      <use xlink:href="#ArialMT-70"/>
      <use x="61.083984" xlink:href="#ArialMT-114"/>
      <use x="94.384766" xlink:href="#ArialMT-101"/>
      <use x="150" xlink:href="#ArialMT-113"/>
      <use x="205.615234" xlink:href="#ArialMT-117"/>
      <use x="261.230469" xlink:href="#ArialMT-234"/>
      <use x="316.845703" xlink:href="#ArialMT-110"/>
      <use x="372.460938" xlink:href="#ArialMT-99"/>
      <use x="422.460938" xlink:href="#ArialMT-105"/>
      <use x="444.677734" xlink:href="#ArialMT-97"/>
     </g>
    </g>
   </g>
   <g id="patch_6">
    <path clip-path="url(#pdb502d0eb3)" d="M 119.825234 435.231496 
L 159.767969 435.231496 
L 159.767969 435.025208 
L 119.825234 435.025208 
z
" style="fill:#feb625;fill-opacity:0.75;stroke:#ffffff;stroke-linejoin:miter;"/>
   </g>
   <g id="patch_7">
    <path clip-path="url(#pdb502d0eb3)" d="M 159.767969 435.231496 
L 199.710703 435.231496 
L 199.710703 435.025208 
L 159.767969 435.025208 
z
" style="fill:#feb625;fill-opacity:0.75;stroke:#ffffff;stroke-linejoin:miter;"/>
   </g>
   <g id="patch_8">
    <path clip-path="url(#pdb502d0eb3)" d="M 199.710703 435.231496 
L 239.653438 435.231496 
L 239.653438 433.581193 
L 199.710703 433.581193 
z
" style="fill:#feb625;fill-opacity:0.75;stroke:#ffffff;stroke-linejoin:miter;"/>
   </g>
   <g id="patch_9">
    <path clip-path="url(#pdb502d0eb3)" d="M 239.653438 435.231496 
L 279.596172 435.231496 
L 279.596172 427.18627 
L 239.653438 427.18627 
z
" style="fill:#feb625;fill-opacity:0.75;stroke:#ffffff;stroke-linejoin:miter;"/>
   </g>
   <g id="patch_10">
    <path clip-path="url(#pdb502d0eb3)" d="M 279.596172 435.231496 
L 319.538907 435.231496 
L 319.538907 412.746121 
L 279.596172 412.746121 
z
" style="fill:#feb625;fill-opacity:0.75;stroke:#ffffff;stroke-linejoin:miter;"/>
   </g>
   <g id="patch_11">
    <path clip-path="url(#pdb502d0eb3)" d="M 319.538907 435.231496 
L 359.481641 435.231496 
L 359.481641 383.865824 
L 319.538907 383.865824 
z
" style="fill:#feb625;fill-opacity:0.75;stroke:#ffffff;stroke-linejoin:miter;"/>
   </g>
   <g id="patch_12">
    <path clip-path="url(#pdb502d0eb3)" d="M 359.481641 435.231496 
L 399.424375 435.231496 
L 399.424375 333.325302 
L 359.481641 333.325302 
z
" style="fill:#feb625;fill-opacity:0.75;stroke:#ffffff;stroke-linejoin:miter;"/>
   </g>
   <g id="patch_13">
    <path clip-path="url(#pdb502d0eb3)" d="M 399.424375 435.231496 
L 439.36711 435.231496 
L 439.36711 258.649104 
L 399.424375 258.649104 
z
" style="fill:#feb625;fill-opacity:0.75;stroke:#ffffff;stroke-linejoin:miter;"/>
   </g>
   <g id="patch_14">
    <path clip-path="url(#pdb502d0eb3)" d="M 439.36711 435.231496 
L 479.309844 435.231496 
L 479.309844 179.228285 
L 439.36711 179.228285 
z
" style="fill:#feb625;fill-opacity:0.75;stroke:#ffffff;stroke-linejoin:miter;"/>
   </g>
   <g id="patch_15">
    <path clip-path="url(#pdb502d0eb3)" d="M 479.309844 435.231496 
L 519.252579 435.231496 
L 519.252579 120.229962 
L 479.309844 120.229962 
z
" style="fill:#feb625;fill-opacity:0.75;stroke:#ffffff;stroke-linejoin:miter;"/>
   </g>
   <g id="patch_16">
    <path clip-path="url(#pdb502d0eb3)" d="M 519.252579 435.231496 
L 559.195313 435.231496 
L 559.195313 124.149431 
L 519.252579 124.149431 
z
" style="fill:#feb625;fill-opacity:0.75;stroke:#ffffff;stroke-linejoin:miter;"/>
   </g>
   <g id="patch_17">
    <path clip-path="url(#pdb502d0eb3)" d="M 559.195313 435.231496 
L 599.138048 435.231496 
L 599.138048 139.002156 
L 559.195313 139.002156 
z
" style="fill:#feb625;fill-opacity:0.75;stroke:#ffffff;stroke-linejoin:miter;"/>
   </g>
   <g id="patch_18">
    <path clip-path="url(#pdb502d0eb3)" d="M 599.138048 435.231496 
L 639.080782 435.231496 
L 639.080782 200.68222 
L 599.138048 200.68222 
z
" style="fill:#feb625;fill-opacity:0.75;stroke:#ffffff;stroke-linejoin:miter;"/>
   </g>
   <g id="patch_19">
    <path clip-path="url(#pdb502d0eb3)" d="M 639.080782 435.231496 
L 679.023516 435.231496 
L 679.023516 286.497962 
L 639.080782 286.497962 
z
" style="fill:#feb625;fill-opacity:0.75;stroke:#ffffff;stroke-linejoin:miter;"/>
   </g>
   <g id="patch_20">
    <path clip-path="url(#pdb502d0eb3)" d="M 679.023516 435.231496 
L 718.966251 435.231496 
L 718.966251 355.398101 
L 679.023516 355.398101 
z
" style="fill:#feb625;fill-opacity:0.75;stroke:#ffffff;stroke-linejoin:miter;"/>
   </g>
   <g id="patch_21">
    <path clip-path="url(#pdb502d0eb3)" d="M 718.966251 435.231496 
L 758.908985 435.231496 
L 758.908985 398.099685 
L 718.966251 398.099685 
z
" style="fill:#feb625;fill-opacity:0.75;stroke:#ffffff;stroke-linejoin:miter;"/>
   </g>
   <g id="patch_22">
    <path clip-path="url(#pdb502d0eb3)" d="M 758.908985 435.231496 
L 798.85172 435.231496 
L 798.85172 420.997635 
L 758.908985 420.997635 
z
" style="fill:#feb625;fill-opacity:0.75;stroke:#ffffff;stroke-linejoin:miter;"/>
   </g>
   <g id="patch_23">
    <path clip-path="url(#pdb502d0eb3)" d="M 798.85172 435.231496 
L 838.794454 435.231496 
L 838.794454 429.455437 
L 798.85172 429.455437 
z
" style="fill:#feb625;fill-opacity:0.75;stroke:#ffffff;stroke-linejoin:miter;"/>
   </g>
   <g id="patch_24">
    <path clip-path="url(#pdb502d0eb3)" d="M 838.794454 435.231496 
L 878.737189 435.231496 
L 878.737189 433.787481 
L 838.794454 433.787481 
z
" style="fill:#feb625;fill-opacity:0.75;stroke:#ffffff;stroke-linejoin:miter;"/>
   </g>
   <g id="patch_25">
    <path clip-path="url(#pdb502d0eb3)" d="M 878.737189 435.231496 
L 918.679923 435.231496 
L 918.679923 434.81892 
L 878.737189 434.81892 
z
" style="fill:#feb625;fill-opacity:0.75;stroke:#ffffff;stroke-linejoin:miter;"/>
   </g>
   <g id="patch_26">
    <path d="M 79.8825 435.231496 
L 79.8825 104.479885 
" style="fill:none;stroke:#262626;stroke-linecap:square;stroke-linejoin:miter;stroke-width:1.25;"/>
   </g>
   <g id="patch_27">
    <path d="M 79.8825 435.231496 
L 958.622657 435.231496 
" style="fill:none;stroke:#262626;stroke-linecap:square;stroke-linejoin:miter;stroke-width:1.25;"/>
   </g>
  </g>
 </g>
 <defs>
  <clipPath id="p26ad27f0b6">
   <rect height="58.367931" width="878.740157" x="79.8825" y="7.2"/>
  </clipPath>
  <clipPath id="pdb502d0eb3">
   <rect height="330.751611" width="878.740157" x="79.8825" y="104.479885"/>
  </clipPath>
 </defs>
</svg>
